<?xml version="1.0" standalone="no"?>
<!DOCTYPE svg PUBLIC "-//W3C//DTD SVG 20010904//EN"
 "http://www.w3.org/TR/2001/REC-SVG-20010904/DTD/svg10.dtd">
<svg version="1.0" xmlns="http://www.w3.org/2000/svg"
 width="416.000000pt" height="416.000000pt" viewBox="0 0 416.000000 416.000000"
 preserveAspectRatio="xMidYMid meet">

<g transform="translate(0.000000,416.000000) scale(0.100000,-0.100000)"
fill="#000000" stroke="none">
<path d="M1785 3294 c-289 -70 -319 -81 -445 -177 -87 -67 -132 -110 -189
-182 -91 -116 -214 -390 -250 -558 l-17 -78 -13 98 c-32 245 -73 336 -215 481
-56 56 -107 102 -114 102 -21 0 -13 -20 17 -46 65 -54 149 -205 188 -339 27
-91 30 -105 48 -264 8 -73 22 -161 31 -194 22 -87 43 -210 49 -292 9 -114 45
-278 65 -295 3 -3 26 -39 50 -80 38 -63 125 -163 181 -206 8 -6 23 -22 35 -35
11 -13 32 -34 45 -46 13 -12 29 -27 34 -33 16 -17 88 -62 105 -65 8 -2 17 -4
20 -4 3 -1 -20 -15 -50 -32 -30 -16 -67 -42 -82 -56 -32 -31 -38 -73 -10 -73
31 0 97 37 135 77 l37 37 41 -43 c49 -51 86 -68 165 -77 49 -6 62 -12 90 -44
38 -41 100 -60 202 -60 52 0 57 2 105 50 32 32 58 50 73 50 33 0 30 -11 -11
-47 -31 -28 -44 -60 -30 -75 3 -3 25 -1 48 4 80 17 156 24 170 17 16 -9 93 9
125 29 13 9 47 16 77 16 38 1 59 7 74 20 12 11 29 21 37 22 9 1 24 10 33 18
10 9 20 13 24 10 11 -11 57 6 57 21 0 9 10 15 24 15 14 0 31 9 39 20 14 21 14
21 22 -2 6 -19 9 -12 17 35 6 31 14 57 19 57 5 0 9 -5 9 -11 0 -6 6 -9 14 -6
8 3 17 -1 20 -9 8 -21 44 -17 51 6 3 11 12 20 19 20 21 0 49 38 56 78 l8 37 1
-32 c1 -46 21 -42 21 4 0 33 1 35 13 18 22 -29 63 -13 78 30 7 19 18 35 24 35
6 0 24 13 40 30 22 23 26 32 16 44 -9 11 -8 23 5 55 9 22 14 48 10 56 -6 17
-36 21 -36 5 0 -5 -9 -10 -19 -10 -31 0 -35 -35 -11 -85 35 -73 11 -101 -34
-42 -33 44 -44 92 -22 100 9 4 16 13 16 22 0 18 -16 20 -26 4 -4 -7 -12 2 -21
21 -10 25 -16 31 -25 22 -9 -9 -9 -21 0 -49 10 -33 9 -40 -10 -60 -15 -17 -19
-26 -11 -34 8 -8 15 -5 25 10 14 20 15 19 27 -22 7 -23 20 -50 29 -60 13 -15
13 -21 2 -42 -17 -32 -32 -27 -44 13 -10 36 -26 40 -56 15 -14 -12 -20 -30
-20 -58 0 -23 -7 -50 -15 -61 -14 -18 -14 -18 -15 7 0 15 -7 32 -15 39 -25 21
-49 7 -66 -39 -12 -34 -17 -40 -23 -26 -5 13 -10 15 -18 7 -6 -6 -16 -8 -24
-5 -8 3 -15 -5 -19 -24 -15 -74 -60 -115 -49 -44 4 26 3 41 -4 41 -13 0 -22
-24 -22 -60 0 -15 -9 -38 -21 -51 l-20 -24 5 35 c3 19 8 45 12 58 9 32 -14 28
-27 -5 -21 -52 -27 -68 -33 -85 -3 -10 -13 -18 -21 -18 -14 0 -15 8 -9 45 6
44 5 45 -20 45 -31 0 -54 -25 -77 -82 -9 -23 -21 -44 -27 -46 -11 -3 -32 58
-32 95 0 21 4 22 36 17 27 -4 35 -2 32 8 -3 7 -19 14 -37 16 -24 3 -31 7 -27
19 9 21 -15 11 -28 -13 -15 -27 -25 -32 -47 -27 -10 3 -19 0 -19 -6 0 -11 11
-14 45 -12 17 1 20 -5 23 -45 4 -79 -47 -129 -64 -61 -22 89 -19 86 -37 46
-17 -39 -76 -104 -85 -95 -3 3 2 14 11 24 31 34 20 58 -22 52 -19 -2 -50 -41
-51 -61 0 -16 -27 -29 -64 -29 -14 0 -9 9 23 40 22 22 41 44 41 50 0 19 4 25
27 43 28 23 29 31 3 57 -17 17 -33 20 -103 20 -93 0 -127 -15 -127 -55 0 -27
30 -48 54 -39 9 3 16 15 16 25 0 22 -4 23 -31 9 -15 -8 -19 -7 -19 4 0 21 31
36 74 36 l35 0 -25 -45 c-44 -78 -117 -125 -194 -125 -38 0 -40 1 -34 25 3 14
1 38 -6 54 -10 24 -9 33 4 54 22 33 11 59 -23 55 -22 -3 -26 -8 -29 -41 -3
-34 -22 -55 -22 -23 0 33 -60 26 -74 -9 -4 -12 -17 -14 -68 -9 -34 3 -76 13
-92 21 l-31 16 28 8 c29 8 57 26 57 38 0 3 -9 12 -20 19 -17 10 -26 10 -49 -3
-16 -8 -31 -20 -33 -27 -4 -11 -38 40 -38 57 0 3 26 5 58 5 62 0 122 27 122
55 0 25 -90 19 -155 -10 -46 -20 -60 -22 -80 -13 -25 11 -34 28 -15 28 20 0 9
40 -15 56 -18 12 -37 15 -63 10 -32 -5 -43 -1 -75 25 -41 33 -45 49 -21 73 23
24 61 19 102 -13 47 -36 90 -48 98 -26 9 23 -33 63 -80 77 -42 12 -66 32 -66
55 0 7 6 10 15 7 17 -7 21 21 5 31 -20 13 -42 -17 -36 -49 5 -29 2 -33 -42
-53 l-47 -23 -33 36 c-49 54 -133 182 -153 234 -32 85 -43 200 -30 318 15 128
38 201 90 284 22 35 68 109 103 166 78 129 134 192 256 290 142 115 181 143
229 164 23 10 43 23 43 29 0 13 -83 9 -136 -7 -105 -31 -337 -212 -420 -327
-37 -52 -132 -229 -148 -277 -30 -91 -37 -135 -48 -315 -1 -22 -4 10 -7 70 -6
116 8 289 33 409 28 135 131 354 235 501 49 69 165 189 229 237 108 81 262
127 442 135 110 5 120 4 213 -27 53 -18 97 -36 97 -41 0 -5 6 -9 13 -9 19 0
159 -100 189 -136 l28 -32 -25 -54 c-13 -29 -26 -74 -29 -100 -6 -61 -18 -81
-69 -117 -90 -62 -138 -131 -166 -238 -14 -52 7 -149 37 -173 12 -10 21 -34
24 -63 3 -27 8 -50 10 -53 3 -2 24 -2 47 2 49 8 122 68 151 124 11 21 27 67
36 104 l16 66 42 0 41 0 22 -63 c12 -35 38 -92 58 -126 19 -35 35 -67 35 -72
0 -5 6 -9 13 -9 19 0 57 85 64 139 12 104 -49 258 -142 361 -51 55 -62 82 -80
192 -12 76 -122 189 -246 255 -49 25 -87 48 -85 50 2 2 35 -8 73 -22 39 -14
79 -25 90 -25 10 0 23 -4 29 -8 5 -5 81 -30 169 -57 88 -26 205 -61 260 -78
55 -16 114 -40 131 -53 23 -17 34 -20 43 -11 21 21 11 36 -51 80 -115 81 -336
170 -508 203 -14 3 -32 7 -40 9 -8 2 -46 7 -85 11 -38 3 -73 8 -77 10 -10 6
-370 13 -393 8z m500 -49 c50 -8 91 -14 93 -15 10 -2 -1 -30 -13 -30 -8 0 -15
5 -15 11 0 5 -4 7 -10 4 -5 -3 -10 -1 -10 5 0 7 -6 8 -17 2 -15 -9 -57 0 -128
29 -30 12 -1 10 100 -6z m184 -41 c117 -34 206 -67 298 -111 52 -24 93 -47 90
-49 -8 -8 -142 38 -162 56 -28 25 -65 43 -73 35 -4 -3 0 -10 8 -15 33 -21 -1
-17 -80 9 -47 16 -104 34 -127 41 -31 10 -40 16 -33 25 5 7 7 15 3 18 -11 11
17 8 76 -9z m196 -94 c3 -5 1 -10 -4 -10 -6 0 -11 5 -11 10 0 6 2 10 4 10 3 0
8 -4 11 -10z m-249 -164 c-3 -14 -2 -28 4 -31 6 -4 7 1 3 12 -6 16 -5 16 11 4
12 -10 16 -26 14 -55 -3 -40 -4 -41 -38 -41 -30 0 -35 3 -38 26 -2 15 4 33 12
42 9 9 16 24 16 35 0 18 8 32 18 32 2 0 1 -11 -2 -24z m-1692 -188 c-3 -5 -7
-8 -8 -6 -1 2 -10 17 -20 33 l-19 30 26 -24 c15 -13 24 -28 21 -33z m1655 20
c-8 -14 -8 -33 0 -62 26 -107 32 -177 17 -220 -8 -22 -19 -67 -26 -98 -10 -52
-17 -63 -73 -113 -59 -54 -100 -75 -115 -60 -15 15 -2 149 23 252 31 122 53
172 102 226 18 21 31 43 27 48 -11 19 16 57 37 52 15 -4 17 -9 8 -25z m79 10
c13 -17 37 -137 28 -145 -3 -3 -6 3 -6 14 0 12 -8 31 -19 44 l-18 23 -15 -29
-15 -29 -8 25 c-9 27 -9 85 0 99 9 14 41 12 53 -2z m-968 -49 c-78 -67 -140
-110 -149 -105 -5 4 -12 2 -16 -4 -3 -5 -2 -10 3 -10 4 0 -18 -27 -49 -59 -58
-59 -96 -114 -219 -314 -48 -78 -67 -102 -73 -91 -17 30 58 192 131 282 57 73
144 162 156 162 6 0 -2 -13 -19 -28 -16 -16 -37 -37 -44 -47 -8 -11 6 0 31 24
26 24 46 49 45 54 -3 12 78 75 163 127 78 47 86 49 40 9z m-715 -53 c19 -44
30 -79 52 -171 2 -11 6 -40 9 -65 3 -33 2 -40 -5 -25 l-10 20 1 -20 c0 -11 4
-33 8 -50 l8 -30 2 30 c5 58 19 -44 19 -139 1 -136 -17 -96 -40 90 -17 137
-43 265 -65 331 -6 16 -5 16 9 -2 9 -11 17 -15 17 -9 0 13 -29 52 -30 39 0 -5
-7 1 -14 14 -15 27 -11 55 6 45 6 -4 20 -30 33 -58z m1857 -98 c44 -90 61
-210 38 -263 -9 -18 -9 -18 -8 5 2 43 -2 70 -9 70 -5 0 -7 -30 -6 -67 l3 -68
-19 87 c-11 48 -43 140 -71 205 -29 64 -54 135 -57 158 l-4 40 53 -55 c29 -31
65 -81 80 -112z m-348 120 c-5 -7 -18 -28 -31 -47 -22 -32 -40 -84 -63 -179
-6 -23 -15 -40 -20 -37 -12 7 -24 -59 -16 -90 4 -14 4 -25 1 -25 -8 0 -35 66
-34 82 0 7 4 4 9 -7 6 -17 9 -13 15 20 4 22 11 55 17 72 5 18 7 37 3 42 -3 6
4 29 15 52 12 22 19 43 16 46 -13 14 -56 -104 -57 -157 l-1 -55 -9 47 c-8 43
-6 54 20 107 18 35 50 75 78 100 48 41 71 53 57 29z m186 -91 c0 -35 -1 -37
-16 -23 -20 20 -28 20 -20 0 3 -8 2 -12 -4 -9 -13 8 -13 30 1 80 l11 39 14
-24 c7 -14 13 -42 14 -63z m109 -148 c16 -41 33 -100 36 -130 l7 -54 -21 30
c-24 34 -67 144 -75 190 -2 17 -7 48 -10 70 l-6 40 20 -35 c10 -19 33 -69 49
-111z m-83 65 c-7 -19 -26 -18 -26 2 0 13 -3 14 -15 4 -8 -6 -19 -9 -25 -5
-20 12 -10 25 21 25 23 0 32 5 37 23 6 20 7 20 10 -6 2 -16 1 -35 -2 -43z
m-379 -86 c-3 -8 -6 -5 -6 6 -1 11 2 17 5 13 3 -3 4 -12 1 -19z m50 -60 c-3
-8 -6 -5 -6 6 -1 11 2 17 5 13 3 -3 4 -12 1 -19z m-798 -1102 c13 -7 19 -16
13 -20 -5 -3 -21 3 -33 14 -27 22 -16 26 20 6z m-5 -125 c7 -11 -31 -22 -50
-14 -8 3 -11 9 -8 14 7 12 51 12 58 0z m1557 -94 c-17 -17 -23 16 -9 49 l12
29 4 -34 c2 -18 -1 -38 -7 -44z m-1331 33 c-15 -10 -88 -14 -79 -5 8 7 83 22
89 18 2 -2 -2 -8 -10 -13z m-169 -58 c-12 -23 -88 -92 -100 -92 -5 0 -17 -3
-26 -6 -36 -14 10 37 69 77 66 44 70 46 57 21z m759 -55 c0 -19 -21 -37 -42
-37 -19 0 -22 8 -12 34 7 19 54 22 54 3z m-348 -19 c-7 -7 -12 -8 -12 -2 0 14
12 26 19 19 2 -3 -1 -11 -7 -17z m738 -49 c-16 -38 -43 -40 -34 -1 4 15 14 38
23 52 l16 24 3 -23 c2 -12 -2 -36 -8 -52z m-754 -46 c-7 -18 -31 -16 -61 3
-28 18 -33 44 -10 44 8 0 15 -9 15 -20 0 -11 7 -23 15 -27 23 -8 30 4 15 23
-12 13 -11 17 1 24 16 10 34 -24 25 -47z m521 -28 c-4 -8 -14 -15 -23 -15 -16
0 -16 2 1 20 20 22 31 20 22 -5z"/>
<path d="M2530 3165 c0 -2 14 -11 30 -20 32 -17 39 -12 16 11 -14 13 -46 20
-46 9z"/>
<path d="M2384 2886 c-3 -8 -1 -23 5 -33 7 -12 10 -13 11 -4 0 11 3 11 15 1
13 -10 15 -9 15 9 0 19 -3 20 -21 10 -20 -10 -21 -9 -16 10 6 24 -1 29 -9 7z"/>
<path d="M2308 2683 c-17 -20 -58 -137 -57 -162 0 -9 13 19 28 61 15 42 34 84
41 93 18 22 7 29 -12 8z"/>
<path d="M2310 2568 c-33 -106 -80 -281 -79 -293 1 -22 55 141 63 190 2 11 13
53 26 93 12 40 20 75 17 78 -2 3 -15 -28 -27 -68z"/>
<path d="M2335 2546 c-9 -41 -15 -79 -14 -85 2 -5 13 28 24 75 12 46 18 84 14
84 -3 0 -14 -33 -24 -74z"/>
<path d="M2347 2460 c-9 -50 -26 -109 -37 -131 -11 -21 -18 -39 -15 -39 21 0
78 180 73 232 -2 19 -9 -3 -21 -62z"/>
<path d="M2217 2403 c-16 -57 -32 -158 -22 -138 3 6 15 52 28 103 25 100 20
129 -6 35z"/>
<path d="M2300 2398 c0 -36 4 -35 14 5 4 16 2 27 -4 27 -5 0 -10 -14 -10 -32z"/>
<path d="M1053 2293 c-3 -10 -8 -22 -11 -27 -3 -5 0 -6 5 -3 11 7 25 47 17 47
-3 0 -7 -8 -11 -17z"/>
<path d="M1011 2211 c-29 -56 -26 -65 4 -12 14 24 23 46 21 48 -3 3 -14 -13
-25 -36z"/>
<path d="M736 2717 c3 -10 9 -15 12 -12 3 3 0 11 -7 18 -10 9 -11 8 -5 -6z"/>
<path d="M780 2615 c0 -5 5 -17 10 -25 5 -8 10 -10 10 -5 0 6 -5 17 -10 25 -5
8 -10 11 -10 5z"/>
<path d="M2520 2712 c0 -7 19 -40 43 -75 24 -34 54 -96 67 -137 21 -70 40
-108 40 -84 0 16 -40 135 -55 164 -12 23 -81 129 -91 139 -2 2 -4 -1 -4 -7z"/>
<path d="M2598 2505 c15 -37 28 -63 29 -58 5 14 -33 117 -44 120 -6 2 1 -26
15 -62z"/>
<path d="M3242 2090 c-7 -11 -10 -31 -7 -45 3 -14 8 -37 11 -52 8 -38 -8 -20
-23 25 l-13 37 5 -45 c3 -41 2 -43 -11 -26 -8 11 -14 26 -14 34 0 7 -4 10 -10
7 -15 -9 13 -56 49 -83 35 -25 42 -62 12 -62 -10 0 -29 -9 -43 -19 l-25 -20
-22 46 c-12 25 -19 53 -16 64 4 13 2 19 -8 19 -9 0 -19 -17 -26 -42 -10 -43
-92 -158 -111 -158 -17 0 -11 41 11 76 11 19 19 42 17 51 -3 13 -11 6 -33 -27
-37 -58 -85 -110 -102 -110 -18 0 -17 7 16 65 17 30 26 57 22 64 -9 14 -34
-19 -62 -79 -9 -19 -25 -43 -37 -53 -17 -15 -23 -16 -40 -6 -20 13 -20 18 5
79 3 8 5 29 4 45 -1 17 9 55 23 86 26 60 25 102 -3 97 -19 -4 -58 -72 -102
-178 -17 -41 -42 -85 -55 -96 -30 -27 -82 -49 -92 -40 -12 13 -4 101 14 145
14 35 21 41 45 41 19 0 29 5 29 15 0 9 -9 15 -25 15 -20 0 -25 5 -25 25 0 35
-16 31 -29 -8 -12 -36 -42 -60 -66 -51 -10 4 -15 0 -15 -10 0 -11 9 -16 26
-16 24 0 25 -3 19 -32 -10 -49 -36 -80 -88 -107 -79 -39 -92 -19 -46 73 11 21
18 45 15 52 -7 18 -36 18 -63 -1 -19 -13 -21 -13 -27 8 -5 20 -7 20 -21 7 -8
-9 -30 -45 -49 -80 -33 -64 -73 -100 -87 -78 -8 13 2 52 24 95 12 23 13 33 4
42 -22 22 -54 11 -93 -31 -76 -83 -128 -129 -151 -134 -42 -11 -38 5 17 59 55
54 112 157 125 228 8 42 -7 58 -32 37 -29 -24 -105 -150 -130 -217 -30 -80
-36 -88 -75 -96 -21 -5 -35 -2 -46 9 -15 14 -14 19 5 58 15 33 18 48 10 66
-16 34 -49 27 -114 -26 -32 -26 -78 -60 -102 -76 l-44 -28 57 72 c31 40 54 75
51 79 -6 6 -38 -27 -111 -113 -24 -27 -39 -36 -63 -36 -45 0 -68 15 -76 49 -7
33 3 57 47 114 27 33 34 37 76 37 59 0 116 27 120 58 3 18 -1 22 -25 22 -41 0
-104 -19 -135 -41 -17 -13 -42 -19 -75 -18 -42 0 -45 2 -25 11 26 13 29 38 4
38 -27 0 -56 -25 -49 -43 3 -8 24 -18 46 -22 23 -4 41 -9 41 -12 0 -3 -9 -18
-21 -34 -26 -36 -31 -83 -13 -126 10 -25 22 -34 53 -43 23 -6 46 -8 51 -5 23
14 6 -13 -31 -50 -54 -53 -86 -110 -94 -167 -6 -40 -4 -48 13 -57 11 -6 27 -8
36 -5 21 8 72 117 92 197 16 65 21 71 68 103 28 19 53 34 56 34 3 0 6 -12 5
-27 0 -37 40 -52 83 -31 18 10 34 12 39 7 12 -12 61 -14 96 -5 22 7 27 5 27
-9 0 -28 54 -11 108 32 25 21 43 31 40 22 -4 -9 0 -26 8 -38 l15 -21 29 20
c24 17 32 19 49 8 33 -21 65 3 107 82 47 86 58 77 14 -10 -21 -41 -28 -66 -22
-72 15 -15 27 -4 56 54 29 58 63 104 72 95 3 -3 -4 -23 -15 -46 -25 -47 -27
-96 -6 -104 20 -8 110 20 125 38 11 14 14 13 27 -5 27 -38 50 -43 93 -21 35
18 39 18 42 3 2 -11 14 0 36 34 18 28 42 60 54 70 21 19 21 19 14 -6 -20 -73
-19 -88 7 -105 21 -14 29 -14 49 -4 13 7 36 12 52 11 18 -2 38 6 53 19 12 13
23 18 23 11 0 -22 42 -24 70 -3 28 20 29 20 66 2 48 -24 73 -15 101 34 33 60
87 77 156 50 20 -8 21 -2 6 28 -9 18 -5 16 20 -8 28 -26 40 -30 96 -32 70 -2
90 10 56 33 -12 8 -21 20 -21 26 0 7 -10 22 -22 35 -17 18 -19 26 -10 35 17
17 15 38 -3 38 -8 0 -15 3 -15 8 0 4 -18 26 -39 49 -38 40 -40 41 -56 23 -16
-18 -18 -18 -51 1 -42 23 -37 23 -52 -1z m114 -15 c-3 -9 0 -15 8 -15 8 0 28
-18 46 -39 30 -38 30 -40 11 -50 -29 -16 -36 -14 -37 14 -1 14 -13 35 -28 46
-22 17 -24 23 -13 40 14 23 21 25 13 4z m-50 -16 c3 -5 -8 -8 -25 -7 -17 1
-31 7 -31 14 0 13 47 7 56 -7z m-491 -61 c-10 -32 -56 -111 -61 -105 -10 10
48 127 62 127 3 0 2 -10 -1 -22z m523 3 c31 -27 28 -48 -9 -53 -35 -5 -45 8
-35 47 8 30 14 30 44 6z m-64 -6 c-4 -8 -8 -15 -10 -15 -2 0 -4 7 -4 15 0 8 4
15 10 15 5 0 7 -7 4 -15z m-1624 -14 c0 -9 -36 -23 -93 -36 -37 -8 -27 11 16
29 37 17 77 20 77 7z m391 -83 c-29 -60 -87 -136 -97 -126 -10 11 63 150 105
202 29 34 25 -9 -8 -76z m1415 9 c3 -21 -33 -48 -53 -40 -11 4 -12 8 -2 14 7
4 12 21 12 38 0 29 2 30 20 18 11 -7 21 -21 23 -30z m-77 14 c10 -6 10 -10 1
-16 -7 -4 -19 0 -28 9 -14 13 -14 16 -2 16 8 0 21 -4 29 -9z m-242 -67 c13
-26 14 -39 7 -52 -16 -24 -47 -26 -68 -3 -17 18 -16 21 6 55 13 20 26 36 31
36 4 0 15 -16 24 -36z m-974 -39 c-15 -45 -64 -97 -71 -75 -11 31 43 120 73
120 11 0 11 -8 -2 -45z m-369 -23 c-21 -51 -43 -72 -76 -72 -32 0 -32 0 -14
44 17 41 60 76 86 69 18 -5 19 -7 4 -41z m-303 -201 c-32 -80 -57 -121 -71
-121 -31 0 9 113 57 162 20 21 38 36 40 34 2 -2 -10 -35 -26 -75z"/>
<path d="M3858 1503 c7 -3 16 -2 19 1 4 3 -2 6 -13 5 -11 0 -14 -3 -6 -6z"/>
</g>
</svg>
